<svg xmlns="http://www.w3.org/2000/svg" xmlns:xlink="http://www.w3.org/1999/xlink" viewBox="0 0 1401 729.92">
  <defs>
    <style>
      .cls-1 {
        isolation: isolate;
      }

      .cls-2 {
        fill: url(#linear-gradient);
      }

      .cls-14, .cls-3, .cls-4, .cls-7 {
        fill: #eae5da;
      }

      .cls-15, .cls-3 {
        opacity: 0.2;
      }

      .cls-4 {
        opacity: 0.5;
      }

      .cls-5 {
        fill: url(#linear-gradient-2);
      }

      .cls-12, .cls-6 {
        fill: none;
        stroke: #eae5da;
        stroke-miterlimit: 10;
      }

      .cls-8 {
        fill: #f4f1ef;
      }

      .cls-11, .cls-9 {
        fill: #f8f3eb;
      }

      .cls-10 {
        fill: url(#linear-gradient-3);
      }

      .cls-11 {
        opacity: 0.4;
      }

      .cls-12 {
        stroke-width: 3px;
      }

      .cls-13 {
        fill: url(#linear-gradient-4);
      }

      .cls-14 {
        opacity: 0.3;
      }

      .cls-15 {
        fill: #4b7cab;
        mix-blend-mode: multiply;
      }

      .cls-16 {
        fill: #f7ede4;
      }

      #nuvem1, #nuvem2 {
    animation: animacao-nuvem-direita 60s ease-in-out infinite alternate;
}

#nuvem3, #nuvem4 {
    animation: animacao-nuvem-esquerda 60s ease-in-out infinite alternate;
}

#onda {
   animation: onda-doido 5s ease-in-out infinite alternate;
}

@keyframes animacao-nuvem-esquerda {
    to {
        transform: translate(-400px);
    }
}

@keyframes animacao-nuvem-direita {
    to {
        transform: translate(400px);
    }
}

@keyframes onda-doido {
    to {
        transform: translate(0, 100px);
    }
}
    </style>
    <linearGradient id="linear-gradient" x1="699.7" y1="122.45" x2="699.7" y2="331.23" gradientTransform="translate(1399.52 840.51) rotate(-179.97)" gradientUnits="userSpaceOnUse">
      <stop offset="0.15" stop-color="#3ec0c5"/>
      <stop offset="0.77" stop-color="#25b1c2"/>
    </linearGradient>
    <linearGradient id="linear-gradient-2" x1="699.7" y1="-5.32" x2="699.7" y2="136.13" gradientTransform="translate(1399.52 840.51) rotate(-179.97)" gradientUnits="userSpaceOnUse">
      <stop offset="0.15" stop-color="#00b8c4"/>
      <stop offset="0.77" stop-color="#00a9b2"/>
    </linearGradient>
    <linearGradient id="linear-gradient-3" x1="699.34" y1="146.71" x2="699.34" y2="857.05" gradientTransform="translate(1399.52 840.51) rotate(-179.97)" gradientUnits="userSpaceOnUse">
      <stop offset="0.15" stop-color="#99d5e2"/>
      <stop offset="0.77" stop-color="#79c8d7"/>
    </linearGradient>
    <linearGradient id="linear-gradient-4" x1="699.81" y1="64.45" x2="699.81" y2="395.33" gradientTransform="translate(1399.52 840.51) rotate(-179.97)" gradientUnits="userSpaceOnUse">
      <stop offset="0.15" stop-color="#65c4ce"/>
      <stop offset="0.77" stop-color="#3ab7cd"/>
    </linearGradient>
  </defs>
  <title>mare</title>
  <g class="cls-1">
    <g id="Mar">
      <path class="cls-2" d="M109.89,683.68c77-20.12,116,29.37,195,23s104,1,149,19.32,93,43.1,189,45,141-63.14,219-64,73,35.76,137,28.46,99,48.59,209,70.63,192-34.72,192-34.72l.08-186.87s-58,59.51-133,45.74-76-15.61-123-2.81-103-12.87-145-38.53-107-60.51-170-34-144,48.48-247,19.12-84-37.59-143-24.79-73-44-130-40.37S250,503.29,191,495,52,517.86-.06,576.46L-.14,761.05C12.55,745.85,46.16,700.33,109.89,683.68Z" transform="translate(0.65 -134.8)"/>
      <path class="cls-3" d="M.33,760.48.38,666c52-58.61,132-89.71,191-81.44s61,17.43,118,13.79,71,53.16,130,40.36,40-4.56,143,24.8,184,7.41,247-19.13,128,8.31,170,34,98,51.35,145,38.54,48-11,123,2.81c71.1,13,126.94-39.75,132.55-45.27l0-90s-58,59.51-133,45.74-76-15.61-123-2.81-103-12.87-145-38.53-107-60.51-170-34-144,48.48-247,19.12-84-37.59-143-24.79-73-44-130-40.37S250,503.29,191,495,52,517.86-.06,576.46L-.14,761.05Z" transform="translate(0.65 -134.8)"/>
      <path class="cls-4" d="M1399.86,756.17s-68,67.3-178,45.26-159-88.46-223-81.16-59-42-137-41.11-123,86.33-219,84.46-144-51.37-189-69.71-69,1.79-148,8.18-120-62.34-197-42.22S-.14,751-.14,751l0,98,1400,.63Z" transform="translate(0.65 -134.8)"/>
      <path class="cls-5" d="M1399.86,771.29s-82,56.75-192,34.72-145-77.93-209-70.63-59-29.34-137-28.46-123,65.9-219,64-144-26.63-189-45-70-25.71-149-19.32-118-43.09-195-23-110,82.39-110,82.39l0,98,1400,.63Z" transform="translate(0.65 -134.8)"/>
      <g>
        <path class="cls-6" d="M109.89,683.68c-77,20.12-110,82.39-110,82.39v8.38c38-30.09,98-38,171-2.94,97,46.62,92,33.16,172,.08s166-11.7,274,31.4,202,1.93,339-38.32c58.51-17.18,102.42-12,143.11,1.68-36.72-18.86-63.72-35.12-100.1-31-64,7.3-59-29.34-137-28.46s-123,65.9-219,64-144-26.63-189-45-70-25.71-149-19.32S186.9,663.56,109.89,683.68Z" transform="translate(0.65 -134.8)"/>
        <path class="cls-6" d="M1207.84,806a370.72,370.72,0,0,1-39-10c31,14.32,64,28.86,104,37.51,123,26.62,127-15.52,127-15.52l0-46.71S1317.83,828,1207.84,806Z" transform="translate(0.65 -134.8)"/>
      </g>
      <path class="cls-7" d="M-.16,793.63c14.21-12.34,32.18-21.08,52.38-25.2,35.84-7.33,76.35-.32,120.4,20.83,48.87,23.46,72.79,33.66,96.59,32.83,24.34-.85,47.49-13.09,93.61-37.48l6.28-3.32c80-42.26,141.69-8.86,213.1,29.83,14.91,8.07,30.32,16.42,46.39,24.34,43.3,21.35,75.41,28.1,110.81,23.3,34.57-4.69,72.14-20.76,124.13-43q9.87-4.21,20.52-8.75c64-27.2,105.07-36.63,146.52-33.65,44.88,3.23,92.67,21.62,160,52.29,71.88,32.72,128,37.62,162.36,36,21.3-1,37.13-4.63,46.85-7.55v-1c-9.62,2.91-25.5,6.57-47,7.6-62.07,3-122.24-17.87-161.79-35.87-67.48-30.73-115.36-49.15-160.41-52.38-4.85-.35-9.69-.53-14.57-.54-37,0-75.76,10.18-132.44,34.27q-10.67,4.53-20.52,8.75c-51.92,22.21-89.43,38.25-123.85,42.92-35.17,4.78-67.1-2-110.2-23.19-16-7.92-31.45-16.26-46.35-24.33-48-26-91.58-49.61-139.31-49.63-23.58,0-48.18,5.74-74.8,19.8l-6.28,3.32c-91.09,48.17-94.65,50-189.24,4.63-44.26-21.25-85-28.29-121.08-20.92-20,4.1-37.93,12.7-52.15,24.84Z" transform="translate(0.65 -134.8)"/>
      <g>
        <path class="cls-7" d="M1298,671.1c-43,5.95-93.14.17-144.91-16.72a466,466,0,0,1-65.21-26.94c-1.2-.26-2.41-.53-3.61-.82a466.93,466.93,0,0,0,68.48,28.62c51.93,17,102.21,22.74,145.4,16.76,40.62-5.62,74.7-21.29,101.73-46.68V624C1372.93,649.66,1338.79,665.46,1298,671.1Z" transform="translate(0.65 -134.8)"/>
        <path class="cls-7" d="M66.09,525.62c22.51-5.71,43.41-4.81,62.11,2.68,79.48,31.81,121.31,46.1,202.83,23.54,21.57-6,39-10,54.39-11.63l-1.34-.8c-15.13,1.76-32.29,5.72-53.34,11.55-77.48,21.44-117,10.59-202.14-23.5A91.46,91.46,0,0,0,94.38,521a116.49,116.49,0,0,0-28.57,3.74l-3.11.84c-1.08.62-2.17,1.26-3.25,1.91C61.68,526.81,63.89,526.18,66.09,525.62Z" transform="translate(0.65 -134.8)"/>
        <path class="cls-7" d="M445.18,547.84l-1.62.35c16.85,7.11,34.86,18.71,58,35.55C537.67,610,568,622,603,623.62c35.89,1.71,77.85-7.76,136.06-30.72,57.53-22.67,105.2-40.29,151.43-43.61q8.91-.63,17.59-.51c-1.56-.34-3.13-.64-4.7-.93q-6.42.07-13,.53c-46.39,3.33-94.14,21-151.75,43.68C680.58,615,638.78,624.41,603,622.71c-34.75-1.66-64.92-13.53-100.86-39.69C479.52,566.53,461.75,555,445.18,547.84Z" transform="translate(0.65 -134.8)"/>
        <path class="cls-7" d="M1399.9,669.64a247.5,247.5,0,0,1-41,19.79,259.64,259.64,0,0,1-88.76,16.37c-38.51.42-78.57-7.32-119.1-23-46.65-18-84-36.58-116.9-52.95-46.74-23.24-83.67-41.6-125.49-48a207.66,207.66,0,0,0-31.38-2.37c-35.74,0-74.21,8.91-120.59,27.65-89.15,36-136,49.19-172.69,48.53C546.5,655,519.33,639,478.2,614.76c-10.93-6.44-20.69-12.4-29.31-17.66-28.9-17.65-48-29.31-69-33.44-20.62-4-43.65-1.06-82.11,10.67-18.51,5.64-33.34,11-46.42,15.81-47.34,17.26-66.93,24.4-130.18-8.53-41.85-21.79-80.88-8.14-106.26,7.15a175.82,175.82,0,0,0-15,10.17v1.19a177.94,177.94,0,0,1,15.55-10.6c16-9.64,32.14-15.57,47.93-17.61,19.73-2.55,39,1,57.28,10.5,63.68,33.15,83.4,26,131.05,8.58,13.07-4.76,27.88-10.16,46.36-15.8,38.28-11.67,61.16-14.65,81.58-10.63,20.83,4.09,39.85,15.71,68.66,33.3,8.62,5.26,18.38,11.23,29.31,17.67,83.6,49.28,106.07,62.52,279.48-7.54,127.43-51.49,183.57-23.57,276.59,22.67,32.94,16.38,70.29,35,117,53,40.66,15.71,80.86,23.48,119.5,23.06a261,261,0,0,0,89.13-16.44,249.4,249.4,0,0,0,40.57-19.54Z" transform="translate(0.65 -134.8)"/>
      </g>
      <g>
        <path class="cls-7" d="M0,421.65v1.23A61.63,61.63,0,0,0,31.4,436c21.14,2.63,43.52-4.82,61.4-20.43,12-10.44,36.84-29.22,69-37.62,31.54-8.24,61.11-4.28,87.9,11.79,5.64,3.39,10.8,6.57,15.8,9.64,23.38,14.4,40.28,24.81,61,27.61,21.16,2.85,46-2,85.65-16.76,88.09-32.78,121.15-21.91,236.52,43.14,98.2,55.38,169.08,24.09,258.8-15.52,16.2-7.15,32.94-14.54,50.67-21.8,55.94-22.93,91.54-29.65,127-24s70.87,24.13,124.29,52.06l18.24,9.51c34.88,18.14,87.06,37,137.64,23.88A117.33,117.33,0,0,0,1400,462.44v-1.12a116.24,116.24,0,0,1-35,15.36c-50.24,13-102.16-5.75-136.87-23.79l-18.24-9.52c-53.52-28-88.88-46.45-124.62-52.17s-71.42,1-127.56,24.05C940,422.52,923.22,429.92,907,437.07c-45.74,20.19-85.23,37.62-126.19,43.41-44.88,6.35-86.71-2.5-131.66-27.85-74-41.73-114.25-61.23-156.81-61.25-24,0-48.7,6.17-80.61,18-39.49,14.69-64.15,19.53-85.12,16.7C306.14,423.35,289.32,413,266,398.66c-5-3.07-10.16-6.25-15.81-9.64a109.48,109.48,0,0,0-57.1-16.13,124.56,124.56,0,0,0-31.61,4.22c-32.36,8.45-57.38,27.33-69.41,37.84-17.66,15.42-39.74,22.77-60.58,20.19A60.63,60.63,0,0,1,0,421.65Z" transform="translate(0.65 -134.8)"/>
        <path class="cls-7" d="M1400,521c-31.6,14.18-65.32,15.08-102.72,2.79-37.19-12.22-74.54-36.06-110.67-59.11-15.85-10.12-32.24-20.58-48.42-29.94-81.5-47.13-116.14-27.51-208.72,24.91-10.06,5.7-20.46,11.59-31.81,17.91-51.76,28.78-108,36.8-167.07,23.84-53.08-11.65-98.81-38.45-127.84-58.88-35.3-24.85-60.24-35.63-86.09-37.2-27.3-1.66-56.9,7-98.95,29.09C380.2,454.06,347.27,460.3,314.06,454c-30.65-5.77-58.76-21.21-91.31-39.09-63.43-34.85-95.47-12.63-148.54,24.16l-4.57,3.17c-19.46,13.47-37.52,19-53.67,16.34a45.7,45.7,0,0,1-16-5.79v1.08a46.71,46.71,0,0,0,15.78,5.61c16.44,2.68,34.76-2.87,54.47-16.51l4.56-3.17c52.74-36.56,84.57-58.63,147.42-24.11,32.63,17.92,60.81,33.4,91.63,39.21,33.46,6.31,66.61,0,104.32-19.74,41.86-21.95,71.28-30.61,98.38-29,25.64,1.55,50.42,12.28,85.55,37,52.72,37.11,98.83,52.59,128.22,59,59.36,13,115.83,5,167.82-24C909.5,472,919.91,466.13,930,460.43c92.18-52.2,126.68-71.74,207.66-24.91,16.16,9.34,32.54,19.8,48.38,29.91,36.18,23.09,73.59,47,110.9,59.23,37.5,12.32,71.34,11.47,103.06-2.64Z" transform="translate(0.65 -134.8)"/>
      </g>
      <path class="cls-8" d="M1132.12,345.6a5,5,0,0,1,5-5h12.48a5,5,0,0,1,5,5h0a5,5,0,0,1-5,5h-12.48a5,5,0,0,1-5-5Z" transform="translate(0.65 -134.8)"/>
      <path class="cls-8" d="M1001.27,479.39a4,4,0,0,1,4-4h12.38a4,4,0,0,1,4,4h0a4,4,0,0,1-4,4h-12.39a4,4,0,0,1-4-4Z" transform="translate(0.65 -134.8)"/>
      <path class="cls-8" d="M824.09,617.59a6.16,6.16,0,0,1,6.17-6.16h23.32a6.17,6.17,0,0,1,6.17,6.17h0a6.18,6.18,0,0,1-6.18,6.16H830.26a6.17,6.17,0,0,1-6.17-6.17Z" transform="translate(0.65 -134.8)"/>
      <path class="cls-8" d="M418.43,613a5.12,5.12,0,0,1,5.13-5.13h2.89a5.13,5.13,0,0,1,5.12,5.13h0a5.13,5.13,0,0,1-5.13,5.13h-2.89a5.12,5.12,0,0,1-5.12-5.12Z" transform="translate(0.65 -134.8)"/>
      <path class="cls-8" d="M1226.09,399.31a6.14,6.14,0,0,1,6.15-6.14h28.93a6.15,6.15,0,0,1,6.15,6.15h0a6.16,6.16,0,0,1-6.16,6.15l-28.92,0a6.15,6.15,0,0,1-6.15-6.15Z" transform="translate(0.65 -134.8)"/>
      <path class="cls-8" d="M1362.26,562.45a3.09,3.09,0,0,1,3.09-3.09h8.08a3.09,3.09,0,0,1,3.09,3.09h0a3.09,3.09,0,0,1-3.09,3.09h-8.08a3.09,3.09,0,0,1-3.09-3.09Z" transform="translate(0.65 -134.8)"/>
      <path class="cls-8" d="M452.1,488.79a5,5,0,0,1,5-5H468a5,5,0,0,1,5,5h0a5,5,0,0,1-5,5H457.13a5,5,0,0,1-5-5Z" transform="translate(0.65 -134.8)"/>
      <path class="cls-8" d="M955.5,635.35a3.27,3.27,0,0,1,3.27-3.27H976a3.26,3.26,0,0,1,3.26,3.27h0a3.26,3.26,0,0,1-3.27,3.26H958.77a3.28,3.28,0,0,1-3.27-3.27Z" transform="translate(0.65 -134.8)"/>
    </g>
    <g id="onda">
      <path class="cls-9" d="M167.33,433.67c94.51-43.92,145.5-27.41,207,.1s90,33,126,26.68,40.5-17,109.49,11.9,168,63.27,295.47,13.87,186-19.15,312,23.5,182.62-10.83,182.62-10.83l.09-203.43s-42.56,66.7-120.54,38.65-86.81-79-124.31-74.86-53.25,14.09-74.23-18.89-62.06-103.67-132.56-87.22S873.89,207.29,840.9,199s-48.81,13.55-81.83,46.51-117.71,58.82-201.68,1.26S475,168.75,427,181.09s-46,38.46-85.57-7.69c-23.31-27.2-85.9-63.07-138.42-15s-46.38,94.36-85.37,94S30.91,249.5.9,294.83L.81,478C66.47,487.65,73.26,477.39,167.33,433.67Z" transform="translate(0.65 -134.8)"/>
      <path class="cls-10" d="M167.31,461.05c94.52-43.93,145.51-27.42,207,.09s90,33,126,26.68,40.51-17,109.49,11.9,168,63.28,295.48,13.87,186-19.15,312,23.5,182.62-10.83,182.62-10.83l.09-203.43s-46.14,43.64-124.13,15.59-87-36.29-124.48-32.19-49.49-5.51-70.48-38.5-60-79.72-130.46-63.26-76.51,30.19-109.51,21.93S791.39,225,758.37,258s-117,73.76-201,16.21-87-57.56-135-45.22-52.5-5.49-81-28.19-78-42-130.5,6.11-64.52,55.61-103.51,55.25S30.9,276.88.88,322.2L.8,505.35C66.46,515,73.25,504.76,167.31,461.05Z" transform="translate(0.65 -134.8)"/>
      <path class="cls-11" d="M107.37,346.32c39,.36,51-7.18,103.52-55.25s102-28.8,130.49-6.11,33,40.54,81,28.19,51-12.34,135,45.22,168,16.75,201-16.21,49.51-39.82,82.51-31.57,39-5.47,109.5-21.93,109.48,30.28,130.47,63.26,33,42.61,70.48,38.5,46.49,4.15,124.47,32.19S1399.9,407,1399.9,407l0-84.19s-46.14,43.64-124.13,15.59-87-36.29-124.48-32.19-49.49-5.51-70.48-38.5-60-79.72-130.46-63.26-76.51,30.19-109.51,21.93S791.39,225,758.37,258s-117,73.76-201,16.21-87-57.56-135-45.22-52.5-5.49-81-28.19-78-42-130.5,6.11-64.52,55.61-103.51,55.25S30.9,276.88.88,322.2l0,84.19C30.86,361.07,68.37,346,107.37,346.32Z" transform="translate(0.65 -134.8)"/>
      <g>
        <path class="cls-12" d="M997.68,223.33c0-3.44,3.72-6.22,8.32-6.22s8.32,2.79,8.32,6.22-3.73,6.22-8.33,6.22S997.68,226.76,997.68,223.33Z" transform="translate(0.65 -134.8)"/>
        <path class="cls-12" d="M902.92,261.54c0-7.56,9.81-13.68,21.91-13.67s21.9,6.13,21.89,13.69-9.81,13.68-21.9,13.68S902.92,269.1,902.92,261.54Z" transform="translate(0.65 -134.8)"/>
        <ellipse class="cls-12" cx="866.89" cy="122.06" rx="7.13" ry="4.67"/>
        <path class="cls-12" d="M813.61,273.94c0-5.49,5.17-9.95,11.55-9.94s11.54,4.46,11.54,9.95-5.18,10-11.55,9.95S813.6,279.44,813.61,273.94Z" transform="translate(0.65 -134.8)"/>
        <path class="cls-12" d="M948.44,219.1c0-3.17,3.2-5.75,7.13-5.75s7.13,2.58,7.13,5.76-3.19,5.75-7.13,5.75S948.44,222.28,948.44,219.1Z" transform="translate(0.65 -134.8)"/>
        <path class="cls-12" d="M1046.89,284c0-1.89,2.51-3.42,5.6-3.42s5.6,1.54,5.6,3.43-2.51,3.42-5.6,3.42S1046.89,285.89,1046.89,284Z" transform="translate(0.65 -134.8)"/>
        <path class="cls-12" d="M979.32,261.73c0-5.24,7.84-9.48,17.49-9.48s17.49,4.26,17.49,9.5-7.84,9.48-17.49,9.48S979.32,267,979.32,261.73Z" transform="translate(0.65 -134.8)"/>
        <path class="cls-12" d="M979.3,304.53a4.09,4.09,0,1,1,4.08,3.77A3.93,3.93,0,0,1,979.3,304.53Z" transform="translate(0.65 -134.8)"/>
        <path class="cls-12" d="M760.28,295.54c0-2.83,4.11-5.13,9.18-5.13s9.16,2.3,9.16,5.14-4.11,5.13-9.17,5.13S760.28,298.37,760.28,295.54Z" transform="translate(0.65 -134.8)"/>
        <path class="cls-12" d="M789.17,255.58c0-1.89,2.43-3.42,5.43-3.42s5.43,1.54,5.43,3.43S797.6,259,794.6,259,789.17,257.47,789.17,255.58Z" transform="translate(0.65 -134.8)"/>
        <path class="cls-12" d="M851.29,303.7c0-2.51,3.34-4.54,7.47-4.54s7.47,2,7.47,4.54-3.35,4.54-7.48,4.54S851.28,306.2,851.29,303.7Z" transform="translate(0.65 -134.8)"/>
        <path class="cls-12" d="M1157.91,325.34c0-2.94,3.56-5.33,8-5.32s8,2.39,8,5.33-3.57,5.33-8,5.33S1157.9,328.29,1157.91,325.34Z" transform="translate(0.65 -134.8)"/>
        <path class="cls-12" d="M1123.07,331.39c0-2.43,2.6-4.4,5.81-4.4s5.8,2,5.8,4.41-2.6,4.4-5.81,4.4S1123.07,333.82,1123.07,331.39Z" transform="translate(0.65 -134.8)"/>
        <path class="cls-12" d="M1175.8,359.37c0-1.93,2.9-3.49,6.47-3.49s6.47,1.57,6.47,3.5-2.9,3.49-6.47,3.49S1175.8,361.3,1175.8,359.37Z" transform="translate(0.65 -134.8)"/>
        <path class="cls-12" d="M1211.64,337.66c0-2.69,3.86-4.86,8.63-4.86s8.62,2.18,8.62,4.87-3.87,4.86-8.63,4.86S1211.64,340.34,1211.64,337.66Z" transform="translate(0.65 -134.8)"/>
        <path class="cls-12" d="M1134.67,360.11a2.66,2.66,0,1,1,2.65,2.74A2.69,2.69,0,0,1,1134.67,360.11Z" transform="translate(0.65 -134.8)"/>
        <path class="cls-12" d="M1178.44,388.39c0-5.71,8.1-10.33,18.09-10.32s18.07,4.63,18.07,10.34-8.1,10.32-18.08,10.32S1178.44,394.1,1178.44,388.39Z" transform="translate(0.65 -134.8)"/>
        <ellipse class="cls-12" cx="1280.11" cy="225.38" rx="13.1" ry="8.51"/>
        <path class="cls-12" d="M1248.45,367.15a4.85,4.85,0,1,1,4.8,4.26A4.55,4.55,0,0,1,1248.45,367.15Z" transform="translate(0.65 -134.8)"/>
        <path class="cls-12" d="M1085.93,313.45c0-3.61,5-6.53,11.11-6.53s11.11,2.93,11.11,6.54-5,6.53-11.11,6.52S1085.93,317.05,1085.93,313.45Z" transform="translate(0.65 -134.8)"/>
        <path class="cls-12" d="M1095.53,363.59c0-1.93,2.15-3.5,4.81-3.49s4.81,1.56,4.8,3.49-2.15,3.49-4.81,3.49S1095.52,365.52,1095.53,363.59Z" transform="translate(0.65 -134.8)"/>
        <path class="cls-12" d="M1362.21,391.06c0-4.28,6.39-7.75,14.27-7.75s14.26,3.48,14.26,7.76-6.39,7.74-14.27,7.74S1362.21,395.33,1362.21,391.06Z" transform="translate(0.65 -134.8)"/>
        <path class="cls-12" d="M1376.49,365.08c0-1.17,1.86-2.12,4.15-2.12s4.14,1,4.14,2.13-1.85,2.12-4.14,2.12S1376.49,366.26,1376.49,365.08Z" transform="translate(0.65 -134.8)"/>
        <path class="cls-12" d="M1349,360.21c0-1.51,1.56-2.74,3.48-2.74s3.49,1.23,3.49,2.74-1.56,2.74-3.49,2.73S1349,361.72,1349,360.21Z" transform="translate(0.65 -134.8)"/>
        <path class="cls-12" d="M1376.5,345.33c0-1.51,2.53-2.73,5.64-2.73s5.64,1.23,5.64,2.74-2.53,2.73-5.64,2.73S1376.5,346.84,1376.5,345.33Z" transform="translate(0.65 -134.8)"/>
        <path class="cls-12" d="M609.6,325.44c0-6.74,10.76-12.2,24-12.2s24,5.48,24,12.22-10.75,12.2-24,12.2S609.6,332.18,609.6,325.44Z" transform="translate(0.65 -134.8)"/>
        <path class="cls-12" d="M569.61,320.77c0-2.57,3.58-4.65,8-4.65s8,2.09,8,4.66-3.59,4.65-8,4.65S569.61,323.34,569.61,320.77Z" transform="translate(0.65 -134.8)"/>
        <path class="cls-12" d="M535,296.93c0-3.66,5-6.62,11.25-6.62s11.25,3,11.25,6.63-5,6.62-11.25,6.62S535,300.59,535,296.93Z" transform="translate(0.65 -134.8)"/>
        <path class="cls-12" d="M525.44,322.05c0-3.28,3.14-5.95,7-5.95s7,2.67,7,6-3.14,5.95-7,5.95S525.44,325.34,525.44,322.05Z" transform="translate(0.65 -134.8)"/>
        <path class="cls-12" d="M674.94,312.16c0-2.21,4.26-4,9.51-4s9.49,1.8,9.49,4-4.25,4-9.5,4S674.94,314.37,674.94,312.16Z" transform="translate(0.65 -134.8)"/>
        <path class="cls-12" d="M468,261.73c0-6.67,7.95-12.06,17.75-12.06s17.75,5.41,17.75,12.07-8,12.06-17.76,12.06S468,268.39,468,261.73Z" transform="translate(0.65 -134.8)"/>
        <path class="cls-12" d="M473,289.58c0-3.22,3.48-5.83,7.76-5.83s7.75,2.61,7.74,5.83-3.47,5.84-7.75,5.83S473,292.8,473,289.58Z" transform="translate(0.65 -134.8)"/>
        <ellipse class="cls-12" cx="446.83" cy="192.02" rx="18.25" ry="10.75"/>
        <ellipse class="cls-12" cx="411.06" cy="239.88" rx="9" ry="5.95"/>
        <ellipse class="cls-12" cx="419.12" cy="118.84" rx="17" ry="8.06"/>
        <path class="cls-12" d="M391,273.67c0-2.15,2.35-3.89,5.25-3.89s5.25,1.75,5.25,3.9-2.35,3.89-5.25,3.89S391,275.82,391,273.67Z" transform="translate(0.65 -134.8)"/>
        <path class="cls-12" d="M259.49,200.33c0-6.45,8.52-11.67,19-11.67s19,5.24,19,11.69S289,212,278.49,212,259.49,206.78,259.49,200.33Z" transform="translate(0.65 -134.8)"/>
        <path class="cls-12" d="M238,223.68c0-2.65,3.36-4.81,7.51-4.8S253,221,253,223.69s-3.36,4.81-7.5,4.8S238,226.34,238,223.68Z" transform="translate(0.65 -134.8)"/>
        <path class="cls-12" d="M224,257.6c0-6.69,9.63-12.1,21.5-12.1s21.5,5.43,21.5,12.12-9.63,12.1-21.51,12.09S224,264.28,224,257.6Z" transform="translate(0.65 -134.8)"/>
        <path class="cls-12" d="M318.48,230c0-3.48,3.47-6.3,7.75-6.3S334,226.54,334,230s-3.47,6.3-7.75,6.3S318.48,233.49,318.48,230Z" transform="translate(0.65 -134.8)"/>
        <path class="cls-12" d="M145,278.14c0-4.68,5-8.47,11.25-8.47s11.25,3.8,11.25,8.48-5,8.47-11.25,8.47S145,282.82,145,278.14Z" transform="translate(0.65 -134.8)"/>
        <path class="cls-12" d="M54.44,315.57c0-6.76,10.53-12.23,23.51-12.22s23.5,5.48,23.49,12.24-10.52,12.22-23.5,12.22S54.44,322.32,54.44,315.57Z" transform="translate(0.65 -134.8)"/>
        <ellipse class="cls-12" cx="40.32" cy="214.06" rx="7.75" ry="5.95"/>
        <ellipse class="cls-12" cx="94.81" cy="238.36" rx="7.25" ry="4.58"/>
        <path class="cls-12" d="M44.91,392.83c0-2.53,2.91-4.58,6.5-4.58s6.5,2.05,6.5,4.59-2.92,4.57-6.5,4.57S44.91,395.36,44.91,392.83Z" transform="translate(0.65 -134.8)"/>
        <path class="cls-12" d="M133.39,338.19c0-2.62,4.27-4.75,9.52-4.75s9.52,2.14,9.52,4.76-4.26,4.75-9.52,4.75S133.39,340.82,133.39,338.19Z" transform="translate(0.65 -134.8)"/>
      </g>
      <path class="cls-4" d="M-.23,700.4l0-38c52-58.61,132-89.71,191-81.44s61,17.43,118,13.79,71,53.16,130,40.36,40-4.56,143,24.8,184,7.41,247-19.12,128,8.3,170,34,98,51.34,145,38.53,48-11,123,2.81,133-45.74,133-45.74l.07-149.33s-57.69,47.76-183.67,5.11-183.4-86.41-310.92-37-223.41,29.28-292.4.39S542.22,430.67,506.22,437,439,483.39,377.55,455.88s-116.14-72.72-210.66-28.8-100.48,77-167,67.1L-.23,700.36S.8,700.37-.23,700.4Z" transform="translate(0.65 -134.8)"/>
      <path class="cls-13" d="M-.24,724.81v-38c52-58.6,132-89.71,191-81.44s61,17.43,118,13.8,71,53.16,130,40.36,40-4.56,143,24.8,184,7.41,247-19.13,128,8.3,170,34,98,51.34,145,38.54,48-11,123,2.8,133-45.74,133-45.74l.08-168.55s-56.65,53.48-182.62,10.83-184.46-72.9-312-23.5-226.49,15-295.48-13.87-73.49-18.23-109.49-11.9-64.49.83-126-26.68-112.47-44-207-.09S66.4,515.12-.14,505.21l-.1,219.56S.79,724.79-.24,724.81Z" transform="translate(0.65 -134.8)"/>
      <path class="cls-14" d="M167.29,516.19c94.51-43.93,145.5-27.41,207,.09s90,33,126,26.68,40.5-17,109.49,11.9,168,63.28,295.48,13.87,186-19.15,312,23.5,182.62-10.83,182.62-10.83l0-55.14s-56.65,53.48-182.62,10.83-184.46-72.9-312-23.5-226.49,15-295.48-13.87-73.49-18.23-109.49-11.9-64.49.83-126-26.68-112.47-44-207-.09S66.4,515.12-.14,505.21l0,55.14C66.38,570.26,72.77,560.11,167.29,516.19Z" transform="translate(0.65 -134.8)"/>
      <g>
        <path class="cls-7" d="M.88,333.5c22.37-4.88,45.38-4.69,64.44-2.86,114.58,11,134.86-8.77,171.67-44.74,3.74-3.65,7.6-7.42,11.76-11.36,20.32-19.21,37.72-27.87,56.44-28.09H306c26.37,0,56.23,16.72,99.57,55.66,35.72,32.09,64.65,50.68,88.45,56.83,20.61,5.33,38.35,1.71,55.83-11.39,15.72-11.78,31.33-16,52.18-14.13,19,1.71,43.43,8.63,84.16,23.88,34.05,12.74,62.84,12.09,90.62-2.05,25-12.71,46-34.62,69-59.84,24.15-26.53,52.42-40.76,79.64-40,21.75.58,41.14,10.63,56.07,29.08,19.53,24.13,36.48,42.76,55.77,55.25,23,14.86,46.09,18.43,70.75,10.92l4-1.23c51.28-15.69,88.33-27,189,45.21,23.66,17,47.4,28,70.56,32.7a129.79,129.79,0,0,0,28.35,2.66v-.91a128.83,128.83,0,0,1-28.17-2.65c-23-4.7-46.6-15.64-70.13-32.52-61.26-44-99.07-57.1-130.84-57.11-20.66,0-38.77,5.53-59.1,11.75l-4,1.23c-24.34,7.42-47.19,3.89-69.86-10.79-19.18-12.43-36.08-31-55.55-55.06-15.11-18.68-34.77-28.86-56.84-29.44-27.54-.75-56.09,13.61-80.44,40.35-22.9,25.15-43.87,47-68.7,59.63-27.48,14-56,14.63-89.75,2-40.82-15.29-65.29-22.22-84.44-23.95-21.14-1.89-37,2.39-52.91,14.34-17.21,12.89-34.66,16.46-54.92,11.22-23.64-6.11-52.44-24.62-88-56.6-43.55-39.13-73.61-55.91-100.27-55.92h-.77c-19,.22-36.63,9-57.15,28.38-4.16,3.94-8,7.71-11.77,11.36C199.67,321,179.52,340.72,65.43,329.73c-23.92-2.3-45.57-1.37-64.55,2.75Z" transform="translate(0.65 -134.8)"/>
        <path class="cls-7" d="M1399.87,479.23c-10.17,2.35-19-1.21-35.93-11.14a460.56,460.56,0,0,0-47.46-24.8c-26.12-11.74-41.88-22.23-54.54-30.65-24.13-16.05-35.15-23.38-80.77-13.41l-1.77.39c-68,14.86-96.1,21-167.26-34.54-33-25.74-66-38.05-98-36.58A101.68,101.68,0,0,0,846.46,358c-35,35.07-80.6,43.22-128.43,22.95-25.37-10.75-46.65-18.29-68-20.13s-42.94,1.89-70.37,12.06c-8.87,3.29-16.71,6.77-24.3,10.15-39.46,17.54-65.53,29.13-144.67-30.77C368.31,320.2,338.23,308,312.51,308c-29.82,0-53.79,16.38-84.22,37.2q-3,2.08-6.19,4.22c-40.2,27.39-65.94,23.15-104.89,16.74-19.4-3.2-41.39-6.82-69.84-7.29A126.19,126.19,0,0,0,.86,366.58v1a125.82,125.82,0,0,1,46.5-7.81c28.36.47,50.31,4.08,69.67,7.27,39.21,6.46,65.12,10.72,105.67-16.9l6.19-4.23c56.28-38.5,90.25-61.74,181.14,7.05,79.64,60.27,105.94,48.58,145.75,30.88,7.57-3.37,15.4-6.85,24.24-10.12,57-21.14,87.05-13.37,137.59,8,48.26,20.46,94.28,12.23,129.58-23.16a100.69,100.69,0,0,1,67-29.21c31.8-1.46,64.55,10.78,97.32,36.37,71.54,55.85,99.82,49.67,168.14,34.73l1.78-.39c45.17-9.87,56.06-2.62,79.94,13.26,12.69,8.45,28.49,19,54.69,30.74a455.72,455.72,0,0,1,47.36,24.75c16.34,9.57,24.27,14.19,36.47,11Z" transform="translate(0.65 -134.8)"/>
      </g>
      <path class="cls-8" d="M866.18,399.16a4.72,4.72,0,0,1,4.72-4.71h12.29a4.71,4.71,0,0,1,4.71,4.72h0a4.71,4.71,0,0,1-4.71,4.71H870.9a4.71,4.71,0,0,1-4.72-4.71Z" transform="translate(0.65 -134.8)"/>
      <path class="cls-8" d="M616.89,436a6.39,6.39,0,0,1,6.4-6.39h32.2a6.41,6.41,0,0,1,6.4,6.4h0a6.4,6.4,0,0,1-6.41,6.4H623.29a6.4,6.4,0,0,1-6.4-6.41Z" transform="translate(0.65 -134.8)"/>
      <path class="cls-8" d="M419.58,414.88a3.85,3.85,0,0,1,3.85-3.85h16.23a3.84,3.84,0,0,1,3.84,3.85h0a3.84,3.84,0,0,1-3.84,3.84H423.43a3.86,3.86,0,0,1-3.85-3.85Z" transform="translate(0.65 -134.8)"/>
      <path class="cls-8" d="M974.89,433a3.19,3.19,0,0,1,3.2-3.19h15.44a3.2,3.2,0,0,1,3.2,3.2h0a3.19,3.19,0,0,1-3.2,3.2H978.09a3.21,3.21,0,0,1-3.2-3.21Z" transform="translate(0.65 -134.8)"/>
      <path class="cls-8" d="M51.38,446.34a4.17,4.17,0,0,1,4.17-4.16h8.61a4.15,4.15,0,0,1,4.16,4.16h0a4.16,4.16,0,0,1-4.16,4.16H55.54a4.17,4.17,0,0,1-4.16-4.17Z" transform="translate(0.65 -134.8)"/>
    </g>
    <g id="nuvem1">
      <path class="cls-15" d="M1217.12,754.62a21.15,21.15,0,0,0-14.56,5.8,32.8,32.8,0,0,0-38-8.2,38.7,38.7,0,0,0-68.38,3,25.33,25.33,0,0,0-17.59,14.34,20.24,20.24,0,1,0,11.72,32.91,25.23,25.23,0,0,0,19.27,1.41,38.67,38.67,0,0,0,43.64-.33,32.79,32.79,0,0,0,54.93-8.43,21.26,21.26,0,1,0,9-40.5Z" transform="translate(0.65 -134.8)"/>
      <g>
        <path class="cls-16" d="M1202.8,709.88a56.22,56.22,0,1,1-56.22-56.23A56.22,56.22,0,0,1,1202.8,709.88Z" transform="translate(0.65 -134.8)"/>
        <path class="cls-16" d="M1262.33,724.93a47.65,47.65,0,1,1-47.65-47.65A47.65,47.65,0,0,1,1262.33,724.93Z" transform="translate(0.65 -134.8)"/>
        <path class="cls-16" d="M1302.44,715.87a30.9,30.9,0,1,1-30.9-30.9A30.89,30.89,0,0,1,1302.44,715.87Z" transform="translate(0.65 -134.8)"/>
        <path class="cls-16" d="M1140.4,721.69A36.72,36.72,0,1,1,1103.69,685,36.72,36.72,0,0,1,1140.4,721.69Z" transform="translate(0.65 -134.8)"/>
        <path class="cls-16" d="M1094.12,735.57a29.42,29.42,0,1,1-29.41-29.42A29.41,29.41,0,0,1,1094.12,735.57Z" transform="translate(0.65 -134.8)"/>
      </g>
    </g>
    <g id="nuvem2">
      <path class="cls-15" d="M345.92,753.4a21.2,21.2,0,0,0-14.56,5.8A32.77,32.77,0,0,0,293.31,751a38.69,38.69,0,0,0-68.38,3,25.33,25.33,0,0,0-17.59,14.34,20.24,20.24,0,1,0,11.72,32.91,25.23,25.23,0,0,0,19.27,1.41,38.67,38.67,0,0,0,43.64-.33,32.79,32.79,0,0,0,54.93-8.43,21.26,21.26,0,1,0,9-40.5Z" transform="translate(0.65 -134.8)"/>
      <g>
        <path class="cls-16" d="M331.6,708.66a56.23,56.23,0,1,1-56.22-56.22A56.22,56.22,0,0,1,331.6,708.66Z" transform="translate(0.65 -134.8)"/>
        <path class="cls-16" d="M391.13,723.72a47.65,47.65,0,1,1-47.65-47.66A47.65,47.65,0,0,1,391.13,723.72Z" transform="translate(0.65 -134.8)"/>
        <path class="cls-16" d="M431.24,714.65a30.9,30.9,0,1,1-30.9-30.9A30.9,30.9,0,0,1,431.24,714.65Z" transform="translate(0.65 -134.8)"/>
        <path class="cls-16" d="M269.2,720.47a36.72,36.72,0,1,1-36.72-36.72A36.71,36.71,0,0,1,269.2,720.47Z" transform="translate(0.65 -134.8)"/>
        <path class="cls-16" d="M222.92,734.35a29.42,29.42,0,1,1-29.41-29.42A29.42,29.42,0,0,1,222.92,734.35Z" transform="translate(0.65 -134.8)"/>
      </g>
    </g>
    <g id="nuvem3">
      <path class="cls-15" d="M267.41,553.63a21.19,21.19,0,0,0-14.56,5.79,32.77,32.77,0,0,0-38-8.19,38.68,38.68,0,0,0-68.37,3,25.28,25.28,0,0,0-17.6,14.34,19.51,19.51,0,0,0-3.77-.37,20.25,20.25,0,1,0,15.49,33.27,25.23,25.23,0,0,0,19.27,1.41,38.7,38.7,0,0,0,43.64-.32,32.79,32.79,0,0,0,54.93-8.44,21.25,21.25,0,1,0,9-40.49Z" transform="translate(0.65 -134.8)"/>
      <g>
        <path class="cls-16" d="M253.09,508.88a56.22,56.22,0,1,1-56.22-56.22A56.22,56.22,0,0,1,253.09,508.88Z" transform="translate(0.65 -134.8)"/>
        <path class="cls-16" d="M312.63,523.94A47.66,47.66,0,1,1,265,476.28,47.65,47.65,0,0,1,312.63,523.94Z" transform="translate(0.65 -134.8)"/>
        <path class="cls-16" d="M352.73,514.87A30.9,30.9,0,1,1,321.83,484,30.9,30.9,0,0,1,352.73,514.87Z" transform="translate(0.65 -134.8)"/>
        <path class="cls-16" d="M190.69,520.69A36.72,36.72,0,1,1,154,484,36.72,36.72,0,0,1,190.69,520.69Z" transform="translate(0.65 -134.8)"/>
        <path class="cls-16" d="M144.41,534.57A29.42,29.42,0,1,1,115,505.15,29.42,29.42,0,0,1,144.41,534.57Z" transform="translate(0.65 -134.8)"/>
      </g>
    </g>
    <g id="nuvem4">
      <path class="cls-15" d="M1134.18,425.81a21.15,21.15,0,0,0-14.56,5.8,32.75,32.75,0,0,0-38-8.19,38.69,38.69,0,0,0-68.38,3,25.33,25.33,0,0,0-17.6,14.34,20.24,20.24,0,1,0,11.72,32.91,25.26,25.26,0,0,0,19.28,1.41,38.66,38.66,0,0,0,43.63-.33,32.8,32.8,0,0,0,54.94-8.43,21.26,21.26,0,1,0,9-40.5Z" transform="translate(0.65 -134.8)"/>
      <g>
        <path class="cls-16" d="M1119.87,381.07a56.23,56.23,0,1,1-56.23-56.23A56.23,56.23,0,0,1,1119.87,381.07Z" transform="translate(0.65 -134.8)"/>
        <path class="cls-16" d="M1179.4,396.12a47.66,47.66,0,1,1-47.66-47.65A47.66,47.66,0,0,1,1179.4,396.12Z" transform="translate(0.65 -134.8)"/>
        <path class="cls-16" d="M1219.5,387.06a30.9,30.9,0,1,1-30.89-30.9A30.89,30.89,0,0,1,1219.5,387.06Z" transform="translate(0.65 -134.8)"/>
        <path class="cls-16" d="M1057.46,392.88a36.72,36.72,0,1,1-36.71-36.72A36.71,36.71,0,0,1,1057.46,392.88Z" transform="translate(0.65 -134.8)"/>
        <path class="cls-16" d="M1011.19,406.76a29.42,29.42,0,1,1-29.42-29.42A29.42,29.42,0,0,1,1011.19,406.76Z" transform="translate(0.65 -134.8)"/>
      </g>
    </g>
  </g>
</svg>
