<svg id="Layer_1" data-name="Layer 1" xmlns="http://www.w3.org/2000/svg" viewBox="0 0 267.84 512"><title>sunscreen</title><g id="protetor-solar"><path d="M197.7,512.5H80.3a30.86,30.86,0,0,1-30.9-30.9V409.5H228.7v72.1A31,31,0,0,1,197.7,512.5Z" transform="translate(-5.03 -0.5)" fill="#edebed"/><path d="M197.7,409.5v72.1a30.86,30.86,0,0,1-30.9,30.9h30.9a30.86,30.86,0,0,0,30.9-30.9V409.5Z" transform="translate(-5.03 -0.5)" fill="#e2dfe3"/><path d="M49.4,471.3H98.3A10.29,10.29,0,0,0,108.6,461V450.7a10.29,10.29,0,0,1,10.3-10.3H164a10.29,10.29,0,0,1,10.3,10.3V461a10.29,10.29,0,0,0,10.3,10.3h44.1V409.5H49.4Z" transform="translate(-5.03 -0.5)" fill="#e7a561"/><path d="M197.7,409.5h30.9v61.8H197.7Z" transform="translate(-5.03 -0.5)" fill="#e49542"/><path d="M228.6,409.5H49.4L18.5,53.2H259.6Z" transform="translate(-5.03 -0.5)" fill="#ffe07d"/><path d="M228.6,53.2,197.7,409.5h30.9L259.5,53.2Z" transform="translate(-5.03 -0.5)" fill="#ffd064"/><path d="M259.5,53.2H18.5L5.3,8.4A6.13,6.13,0,0,1,11.2.5H266.7a6.16,6.16,0,0,1,5.9,7.9Z" transform="translate(-5.03 -0.5)" fill="#e7a561"/><path d="M266.7.5H235.8a6.16,6.16,0,0,1,5.9,7.9L228.6,53.2h30.9L272.6,8.4A6.11,6.11,0,0,0,266.7.5Z" transform="translate(-5.03 -0.5)" fill="#e49542"/><circle cx="133.97" cy="212.7" r="27.8" fill="#e7a561"/><path d="M139,165.5a7.7,7.7,0,0,1-7.7-7.7V142.7a7.7,7.7,0,0,1,15.4,0v15.1A7.64,7.64,0,0,1,139,165.5Z" transform="translate(-5.03 -0.5)" fill="#e7a561"/><path d="M139,291.5a7.7,7.7,0,0,1-7.7-7.7V268.7a7.7,7.7,0,0,1,15.4,0v15.1A7.7,7.7,0,0,1,139,291.5Z" transform="translate(-5.03 -0.5)" fill="#e7a561"/><path d="M83.6,221H68.5a7.7,7.7,0,0,1,0-15.4H83.6a7.7,7.7,0,0,1,0,15.4Z" transform="translate(-5.03 -0.5)" fill="#e7a561"/><path d="M209.5,221H194.4a7.7,7.7,0,0,1,0-15.4h15.1a7.7,7.7,0,0,1,0,15.4Z" transform="translate(-5.03 -0.5)" fill="#e7a561"/><path d="M89.1,270.8a7.81,7.81,0,0,1-5.5-2.3,7.73,7.73,0,0,1,0-10.9L94.3,247a7.71,7.71,0,0,1,10.9,10.9L94.5,268.6a7.32,7.32,0,0,1-5.4,2.2Z" transform="translate(-5.03 -0.5)" fill="#e7a561"/><path d="M178.2,181.8a7.81,7.81,0,0,1-5.5-2.3,7.73,7.73,0,0,1,0-10.9l10.7-10.7a7.71,7.71,0,0,1,10.9,10.9l-10.7,10.7a7.58,7.58,0,0,1-5.4,2.3Z" transform="translate(-5.03 -0.5)" fill="#e7a561"/><path d="M99.8,181.8a7.81,7.81,0,0,1-5.5-2.3L83.6,168.8a7.71,7.71,0,0,1,10.9-10.9l10.7,10.7a7.73,7.73,0,0,1,0,10.9,7.41,7.41,0,0,1-5.4,2.3Z" transform="translate(-5.03 -0.5)" fill="#e7a561"/><path d="M188.9,270.8a7.81,7.81,0,0,1-5.5-2.3l-10.7-10.7a7.71,7.71,0,0,1,10.9-10.9l10.7,10.7a7.73,7.73,0,0,1,0,10.9,7.19,7.19,0,0,1-5.4,2.3Z" transform="translate(-5.03 -0.5)" fill="#e7a561"/><path d="M195.5,363.1H82.5a6.23,6.23,0,0,1-6.2-6.2V336.2a6.23,6.23,0,0,1,6.2-6.2h113a6.23,6.23,0,0,1,6.2,6.2v20.7A6.17,6.17,0,0,1,195.5,363.1Z" transform="translate(-5.03 -0.5)" fill="#e7a561"/><path d="M209.5,107.3H68.5a7.7,7.7,0,0,1,0-15.4H209.6a7.7,7.7,0,0,1,7.7,7.7,7.79,7.79,0,0,1-7.8,7.7Z" transform="translate(-5.03 -0.5)" fill="#e7a561"/></g></svg>